<svg width="18" height="17" viewBox="0 0 18 17" fill="none" xmlns="http://www.w3.org/2000/svg">
<g id="Group">
<path id="Vector" d="M10.705 0.368349L7.24837 0.360016H7.2467C3.6017 0.360016 0.746704 3.21585 0.746704 6.86168C0.746704 10.2767 3.4017 12.8667 6.96754 13.0033V16.1933C6.96754 16.2833 7.0042 16.4317 7.06754 16.5292C7.18587 16.7167 7.38754 16.8183 7.5942 16.8183C7.7092 16.8183 7.82504 16.7867 7.9292 16.72C8.1492 16.58 13.3234 13.27 14.6692 12.1317C16.2542 10.79 17.2025 8.82335 17.205 6.87168V6.85752C17.2 3.21835 14.3467 0.368349 10.705 0.367516V0.368349ZM13.8609 11.1783C12.9159 11.9783 9.80921 14.0159 8.21754 15.0475V12.3917C8.21754 12.0467 7.93837 11.7667 7.59254 11.7667H7.26254C4.21254 11.7667 1.99754 9.70335 1.99754 6.86168C1.99754 3.91668 4.3042 1.61002 7.24754 1.61002L10.7034 1.61835H10.705C13.6484 1.61835 15.955 3.92335 15.9567 6.86502C15.9542 8.45668 15.1717 10.0683 13.8617 11.1783H13.8609Z" fill="#6E767D"/>
</g>
</svg>
