<svg width="18" height="17" viewBox="0 0 18 17" fill="none" xmlns="http://www.w3.org/2000/svg">
<g id="Group">
<path id="Vector" d="M9 16.5317H8.98833C6.83583 16.4917 0.625 10.88 0.625 5.56499C0.625 3.01166 2.72917 0.769989 5.1275 0.769989C7.03583 0.769989 8.31917 2.08666 8.99917 3.04499C9.6775 2.08832 10.9608 0.769989 12.87 0.769989C15.27 0.769989 17.3733 3.01166 17.3733 5.56582C17.3733 10.8792 11.1617 16.4908 9.00917 16.53H9V16.5317ZM5.12833 2.02082C3.395 2.02082 1.87583 3.67749 1.87583 5.56666C1.87583 10.35 7.7375 15.23 9.00083 15.2817C10.2658 15.23 16.1258 10.3508 16.1258 5.56666C16.1258 3.67749 14.6067 2.02082 12.8733 2.02082C10.7667 2.02082 9.59 4.46749 9.58 4.49166C9.38833 4.95999 8.61667 4.95999 8.42417 4.49166C8.4125 4.46666 7.23667 2.02082 5.12917 2.02082H5.12833Z" fill="#6E767D"/>
</g>
</svg>
