<svg width="20" height="15" viewBox="0 0 20 15" fill="none" xmlns="http://www.w3.org/2000/svg">
<g id="Group">
<path id="Vector" d="M19.8083 10.5583C19.565 10.3142 19.1692 10.3142 18.925 10.5583L17.075 12.4083V3.87499C17.075 2.15166 15.6725 0.74999 13.95 0.74999H9.075C8.73 0.74999 8.45 1.02999 8.45 1.37499C8.45 1.71999 8.73 1.99999 9.075 1.99999H13.95C14.9833 1.99999 15.825 2.84166 15.825 3.87499V12.4083L13.975 10.5583C13.7308 10.3142 13.335 10.3142 13.0917 10.5583C12.8483 10.8025 12.8467 11.1983 13.0917 11.4417L16.0083 14.3583C16.1292 14.4808 16.2892 14.5417 16.45 14.5417C16.6108 14.5417 16.7692 14.4817 16.8917 14.3583L19.8083 11.4417C20.0533 11.1983 20.0533 10.8025 19.8083 10.5583ZM10.925 13.2917H6.05C5.01667 13.2917 4.175 12.45 4.175 11.4167V2.88332L6.025 4.73332C6.14833 4.85582 6.30833 4.91666 6.46833 4.91666C6.62833 4.91666 6.78833 4.85582 6.91 4.73332C7.15416 4.48916 7.15416 4.09332 6.91 3.84999L3.99333 0.933323C3.74917 0.688323 3.35333 0.688323 3.11 0.933323L0.193332 3.84999C-0.0516675 4.09332 -0.0516675 4.48916 0.193332 4.73332C0.438332 4.97749 0.832499 4.97749 1.07667 4.73332L2.92667 2.88332V11.4167C2.92667 13.14 4.32917 14.5417 6.05167 14.5417H10.9267C11.2717 14.5417 11.5517 14.2617 11.5517 13.9167C11.5517 13.5717 11.2708 13.2917 10.9267 13.2917H10.925Z" fill="#6E767D"/>
</g>
</svg>
