<svg width="18" height="17" viewBox="0 0 18 17" fill="none" xmlns="http://www.w3.org/2000/svg">
<g id="Group">
<path id="Vector" d="M13.6083 4.72501L9.44167 0.558339C9.1975 0.314172 8.80167 0.314172 8.55833 0.558339L4.39167 4.72501C4.14667 4.96917 4.14667 5.36501 4.39167 5.60834C4.63667 5.85167 5.03083 5.85334 5.275 5.60834L8.375 2.50834V11C8.375 11.345 8.655 11.625 9 11.625C9.345 11.625 9.625 11.345 9.625 11V2.50834L12.725 5.60834C12.8467 5.73084 13.0067 5.79167 13.1667 5.79167C13.3267 5.79167 13.4867 5.73167 13.6083 5.60834C13.8525 5.36417 13.8525 4.96917 13.6083 4.72501Z" fill="#6E767D"/>
<path id="Vector_2" d="M15.4233 16.7867H2.57666C1.52332 16.7867 0.666656 15.93 0.666656 14.8767V10.1667C0.666656 9.82166 0.946656 9.54166 1.29166 9.54166C1.63666 9.54166 1.91666 9.82166 1.91666 10.1667V14.8767C1.91666 15.2408 2.21249 15.5367 2.57666 15.5367H15.4233C15.7875 15.5367 16.0833 15.2408 16.0833 14.8767V10.1667C16.0833 9.82166 16.3633 9.54166 16.7083 9.54166C17.0533 9.54166 17.3333 9.82166 17.3333 10.1667V14.8767C17.3333 15.93 16.4767 16.7867 15.4233 16.7867Z" fill="#6E767D"/>
</g>
</svg>
