<svg width="283" height="20" viewBox="0 0 283 20" fill="none" xmlns="http://www.w3.org/2000/svg">
<path d="M6.05713 14V5.3208H9.22852V3.43115H0.673828V5.3208H3.84521V14H6.05713ZM11.0449 14H13.1763V9.36377C13.1763 8.31641 13.7915 7.60596 14.8608 7.60596C15.8276 7.60596 16.3477 8.18457 16.3477 9.30518V14H18.479V8.7998C18.479 6.85889 17.4463 5.76758 15.7104 5.76758C14.5239 5.76758 13.645 6.32422 13.2715 7.24707H13.1396V2.83789H11.0449V14ZM24.0454 7.37891C25.0415 7.37891 25.686 8.04541 25.73 9.11475H22.2876C22.3608 8.06738 23.0566 7.37891 24.0454 7.37891ZM25.7739 11.7002C25.5469 12.2349 24.9683 12.5352 24.126 12.5352C23.0127 12.5352 22.3096 11.7881 22.2803 10.5869V10.4771H27.8247V9.8252C27.8247 7.26172 26.4185 5.74561 24.0381 5.74561C21.6357 5.74561 20.1562 7.37158 20.1562 10.001C20.1562 12.623 21.6064 14.1758 24.0674 14.1758C26.0449 14.1758 27.4365 13.2236 27.7588 11.7002H25.7739ZM35.7715 14V7.38623H35.9033L40.7812 14H42.6123V3.43115H40.4956V10.0156H40.3638L35.5005 3.43115H33.6548V14H35.7715ZM48.4644 7.37891C49.4604 7.37891 50.105 8.04541 50.1489 9.11475H46.7065C46.7798 8.06738 47.4756 7.37891 48.4644 7.37891ZM50.1929 11.7002C49.9658 12.2349 49.3872 12.5352 48.5449 12.5352C47.4316 12.5352 46.7285 11.7881 46.6992 10.5869V10.4771H52.2437V9.8252C52.2437 7.26172 50.8374 5.74561 48.457 5.74561C46.0547 5.74561 44.5752 7.37158 44.5752 10.001C44.5752 12.623 46.0254 14.1758 48.4863 14.1758C50.4639 14.1758 51.8555 13.2236 52.1777 11.7002H50.1929ZM65.0391 5.92139H62.9224L61.7212 11.7148H61.5894L60.1685 5.92139H58.1323L56.7188 11.7148H56.5869L55.3857 5.92139H53.2251L55.3784 14H57.6196L59.0479 8.42627H59.1797L60.6226 14H62.8931L65.0391 5.92139ZM75.7837 14V10.1108L79.4604 3.43115H77.0654L74.7437 7.85498H74.6118L72.2827 3.43115H69.8877L73.5718 10.1108V14H75.7837ZM83.2104 14.1758C85.6934 14.1758 87.1875 12.6011 87.1875 9.95703C87.1875 7.33496 85.6714 5.74561 83.2104 5.74561C80.7495 5.74561 79.2334 7.34229 79.2334 9.95703C79.2334 12.6011 80.7275 14.1758 83.2104 14.1758ZM83.2104 12.4326C82.0679 12.4326 81.4233 11.5317 81.4233 9.95703C81.4233 8.4043 82.0752 7.48877 83.2104 7.48877C84.3384 7.48877 84.9976 8.4043 84.9976 9.95703C84.9976 11.5244 84.3457 12.4326 83.2104 12.4326ZM88.9307 14H91.062V9.5249C91.062 8.38965 91.8604 7.70117 93.0249 7.70117C93.3691 7.70117 93.8672 7.76709 94.0356 7.83301V5.89209C93.8525 5.82617 93.4937 5.78955 93.2007 5.78955C92.1753 5.78955 91.3403 6.40479 91.1279 7.21045H90.9961V5.92139H88.9307V14ZM97.8003 9.07812H97.6685V2.83789H95.5371V14H97.6685V11.3193L98.2544 10.7188L100.613 14H103.14L99.8511 9.38574L102.927 5.92139H100.503L97.8003 9.07812ZM113.342 14V5.3208H116.514V3.43115H107.959V5.3208H111.13V14H113.342ZM118.125 14H120.256V5.92139H118.125V14ZM119.194 4.79346C119.956 4.79346 120.454 4.34668 120.454 3.7168C120.454 3.07959 119.956 2.64014 119.194 2.64014C118.425 2.64014 117.935 3.07959 117.935 3.7168C117.935 4.34668 118.425 4.79346 119.194 4.79346ZM122.417 14H124.548V9.13672C124.548 8.23584 125.142 7.58398 125.977 7.58398C126.812 7.58398 127.31 8.07471 127.31 8.93164V14H129.36V9.05615C129.36 8.19922 129.917 7.58398 130.781 7.58398C131.682 7.58398 132.129 8.06006 132.129 9.01953V14H134.26V8.45557C134.26 6.79297 133.257 5.74561 131.646 5.74561C130.518 5.74561 129.587 6.33887 129.214 7.23975H129.082C128.76 6.30225 127.983 5.74561 126.848 5.74561C125.786 5.74561 124.944 6.31689 124.614 7.23975H124.482V5.92139H122.417V14ZM139.827 7.37891C140.823 7.37891 141.467 8.04541 141.511 9.11475H138.069C138.142 8.06738 138.838 7.37891 139.827 7.37891ZM141.555 11.7002C141.328 12.2349 140.75 12.5352 139.907 12.5352C138.794 12.5352 138.091 11.7881 138.062 10.5869V10.4771H143.606V9.8252C143.606 7.26172 142.2 5.74561 139.819 5.74561C137.417 5.74561 135.938 7.37158 135.938 10.001C135.938 12.623 137.388 14.1758 139.849 14.1758C141.826 14.1758 143.218 13.2236 143.54 11.7002H141.555ZM145.173 8.29443C145.173 9.53955 145.935 10.2866 147.502 10.6309L148.967 10.9604C149.678 11.1143 149.985 11.356 149.985 11.7515C149.985 12.2715 149.414 12.6157 148.586 12.6157C147.737 12.6157 147.217 12.3008 147.056 11.7515H144.976C145.122 13.3042 146.411 14.1758 148.542 14.1758C150.659 14.1758 152.102 13.1211 152.102 11.5098C152.102 10.3013 151.399 9.64209 149.832 9.29785L148.315 8.96826C147.568 8.7998 147.224 8.55811 147.224 8.1626C147.224 7.6499 147.788 7.30566 148.55 7.30566C149.341 7.30566 149.832 7.62793 149.941 8.14795H151.912C151.794 6.60254 150.586 5.74561 148.535 5.74561C146.521 5.74561 145.173 6.76367 145.173 8.29443Z" fill="#D9D9D9"/>
<path d="M173.75 10.4167C173.75 9.1 173.021 7.95833 171.96 7.41667C172.088 7.05417 172.158 6.6625 172.158 6.25C172.158 4.40833 170.733 2.91833 168.977 2.91833C168.585 2.91833 168.21 2.98833 167.863 3.12667C167.348 2.0125 166.258 1.25 165 1.25C163.742 1.25 162.653 2.01417 162.136 3.125C161.79 2.9875 161.414 2.91667 161.022 2.91667C159.264 2.91667 157.841 4.40833 157.841 6.25C157.841 6.66167 157.91 7.05333 158.038 7.41667C156.978 7.95833 156.249 9.09833 156.249 10.4167C156.249 11.6625 156.901 12.7483 157.867 13.3217C157.851 13.4633 157.841 13.605 157.841 13.75C157.841 15.5917 159.264 17.0833 161.022 17.0833C161.414 17.0833 161.789 17.0117 162.135 16.875C162.652 17.9867 163.74 18.75 164.999 18.75C166.259 18.75 167.347 17.9867 167.863 16.875C168.209 17.0108 168.584 17.0817 168.977 17.0817C170.735 17.0817 172.158 15.59 172.158 13.7483C172.158 13.6033 172.148 13.4617 172.131 13.3208C173.096 12.7483 173.75 11.6625 173.75 10.4175V10.4167ZM168.237 7.63833L164.625 13.055C164.504 13.2358 164.307 13.3333 164.104 13.3333C163.985 13.3333 163.864 13.3 163.757 13.2283L163.662 13.15L161.649 11.1375C161.405 10.8933 161.405 10.4975 161.649 10.2542C161.893 10.0108 162.289 10.0092 162.532 10.2542L164.007 11.7267L167.195 6.94333C167.387 6.65583 167.775 6.58 168.062 6.77083C168.35 6.9625 168.428 7.35083 168.237 7.6375V7.63833Z" fill="#D9D9D9"/>
<path d="M185.804 7.36426C186.888 7.36426 187.577 8.23584 187.577 9.61279C187.577 11.0117 186.881 11.9199 185.797 11.9199C184.72 11.9199 184.024 11.0337 184.024 9.64941C184.024 8.27246 184.735 7.36426 185.804 7.36426ZM186.039 3.49707C182.486 3.49707 180.011 5.99463 180.011 9.57617C180.011 13.2822 182.42 15.6992 186.112 15.6992C187.064 15.6992 187.936 15.582 188.551 15.377V14.6519C188.06 14.8496 187.123 14.9741 186.119 14.9741C182.926 14.9741 180.809 12.8354 180.809 9.60547C180.809 6.47803 182.984 4.22217 185.973 4.22217C189.005 4.22217 191.092 6.14111 191.092 8.93164C191.092 10.8433 190.477 12.0225 189.474 12.0225C188.807 12.0225 188.441 11.6416 188.441 10.9385V6.72705H187.591V7.75977H187.496C187.218 7.04199 186.5 6.58057 185.68 6.58057C184.178 6.58057 183.124 7.83301 183.124 9.62744C183.124 11.4658 184.164 12.7183 185.68 12.7183C186.566 12.7183 187.247 12.2568 187.577 11.4219H187.672C187.752 12.2275 188.419 12.7695 189.327 12.7695C190.917 12.7695 191.898 11.312 191.898 8.94629C191.898 5.73096 189.496 3.49707 186.039 3.49707ZM193.949 14H194.908V9.3125C194.908 7.82568 195.86 6.84424 197.252 6.84424C198.622 6.84424 199.31 7.61328 199.31 9.11475V14H200.27V8.87305C200.27 7.03467 199.266 5.97998 197.508 5.97998C196.249 5.97998 195.377 6.55859 194.959 7.53271H194.864V6.11182H193.949V14ZM202.987 16.7905C204.276 16.7905 204.833 16.2778 205.536 14.3809L208.604 6.11182H207.579L205.199 12.9526H205.111L202.723 6.11182H201.683L204.642 14.0513L204.481 14.542C204.093 15.5894 203.697 15.9556 202.972 15.9556C202.855 15.9556 202.65 15.9482 202.54 15.9263V16.7612C202.665 16.7759 202.87 16.7905 202.987 16.7905ZM210.838 4.06104V6.11182H209.549V6.9248H210.838V12.0371C210.838 13.4727 211.439 14.0439 212.948 14.0439C213.116 14.0439 213.453 14.022 213.622 13.9927V13.1724C213.46 13.187 213.204 13.1943 213.05 13.1943C212.164 13.1943 211.798 12.7842 211.798 11.8174V6.9248H213.622V6.11182H211.798V4.06104H210.838ZM215.687 14H216.646V6.11182H215.687V14ZM216.163 4.354C216.559 4.354 216.881 4.03174 216.881 3.63623C216.881 3.24805 216.559 2.92578 216.163 2.92578C215.775 2.92578 215.453 3.24805 215.453 3.63623C215.453 4.03174 215.775 4.354 216.163 4.354ZM219.159 14H220.118V9.15869C220.118 7.86963 221.004 6.84424 222.147 6.84424C223.238 6.84424 223.963 7.58398 223.963 8.71924V14H224.923V8.99756C224.923 7.77441 225.736 6.84424 226.952 6.84424C228.138 6.84424 228.775 7.53271 228.775 8.82178V14H229.735V8.60205C229.735 6.93213 228.819 5.97998 227.237 5.97998C226.102 5.97998 225.179 6.58789 224.776 7.53271H224.681C224.344 6.58789 223.553 5.97998 222.447 5.97998C221.356 5.97998 220.514 6.56592 220.169 7.53271H220.074V6.11182H219.159V14ZM235.257 6.82959C236.686 6.82959 237.63 7.8916 237.652 9.51758H232.738C232.826 7.8916 233.822 6.82959 235.257 6.82959ZM237.557 12.0518C237.22 12.8281 236.415 13.2749 235.294 13.2749C233.771 13.2749 232.782 12.1323 232.73 10.3525V10.3086H238.656V9.88379C238.656 7.47412 237.367 5.97998 235.265 5.97998C233.119 5.97998 231.742 7.58398 231.742 10.0596C231.742 12.5498 233.104 14.1318 235.272 14.1318C236.927 14.1318 238.143 13.3335 238.531 12.0518H237.557ZM240.553 8.19922C240.553 9.3125 241.241 9.91309 242.706 10.2646L243.9 10.5503C244.955 10.7993 245.445 11.2021 245.445 11.8906C245.445 12.7183 244.574 13.3115 243.417 13.3115C242.274 13.3115 241.52 12.8135 241.307 12.0225H240.311C240.472 13.3188 241.666 14.1318 243.387 14.1318C245.108 14.1318 246.434 13.1797 246.434 11.8174C246.434 10.6748 245.694 10.0596 244.171 9.69336L243.087 9.43701C242.032 9.18799 241.52 8.81445 241.52 8.1626C241.52 7.37158 242.362 6.80029 243.395 6.80029C244.442 6.80029 245.174 7.28369 245.35 8.02344H246.295C246.119 6.771 244.991 5.97998 243.402 5.97998C241.812 5.97998 240.553 6.93213 240.553 8.19922Z" fill="#6E767D"/>
<path d="M254.175 14.0586C254.607 14.0586 254.944 13.7144 254.944 13.2896C254.944 12.8574 254.607 12.5132 254.175 12.5132C253.743 12.5132 253.399 12.8574 253.399 13.2896C253.399 13.7144 253.743 14.0586 254.175 14.0586Z" fill="#6E767D"/>
<path d="M262.758 14H263.827L268.668 4.36865V3.43115H261.784V4.33203H267.643V4.4126L262.758 14ZM270.661 14H271.62V9.15869C271.62 7.86963 272.506 6.84424 273.649 6.84424C274.74 6.84424 275.465 7.58398 275.465 8.71924V14H276.425V8.99756C276.425 7.77441 277.238 6.84424 278.454 6.84424C279.64 6.84424 280.277 7.53271 280.277 8.82178V14H281.237V8.60205C281.237 6.93213 280.321 5.97998 278.739 5.97998C277.604 5.97998 276.681 6.58789 276.278 7.53271H276.183C275.846 6.58789 275.055 5.97998 273.949 5.97998C272.858 5.97998 272.016 6.56592 271.671 7.53271H271.576V6.11182H270.661V14Z" fill="#6E767D"/>
</svg>
